PathFileType	4	(X/Y/Z)	C:\ABL_Data\ExoAging\Piloting\Dec 6 2019\Generated_files\static_1.trc
DataRate	CameraRate	NumFrames	NumMarkers	Units	OrigDataRate	OrigDataStartFrame	OrigNumFrames
100.00	100.00	       18	20	mm	100.00	135	       539
Frame#	Time	R.Acromium			L.Acromium			Sternum			R.ASIS			R.PSIS			S2			L.PSIS			L.ASIS			R.Knee			R.Ankle			L.Knee			L.Ankle			R.MKnee			R.MAnkle			L.MKnee			L.MAnkle			C7			T12			Clav			R.Back			
		X1	Y1	Z1	X2	Y2	Z2	X3	Y3	Z3	X4	Y4	Z4	X5	Y5	Z5	X6	Y6	Z6	X7	Y7	Z7	X8	Y8	Z8	X9	Y9	Z9	X10	Y10	Z10	X11	Y11	Z11	X12	Y12	Z12	X13	Y13	Z13	X14	Y14	Z14	X15	Y15	Z15	X16	Y16	Z16	X17	Y17	Z17	X18	Y18	Z18	X19	Y19	Z19	X20	Y20	Z20	

135	1.340	773.02570	362.89496	1491.17456	786.61670	766.98334	1483.40942				852.73175	423.76071	1006.65533	669.11804	506.48474	1043.09290	652.96002	558.96722	1019.33698	674.92261	609.00580	1046.83752	862.36084	683.86523	1018.05591	758.00049	361.84848	512.98853	693.42999	359.38034	87.67711	757.56116	740.69110	509.85446	701.59650	751.93329	79.95068	779.38861	475.36069	490.43817	739.26740	439.53110	92.89540	767.52423	628.56494	487.30795	717.45758	661.49823	94.02692	695.34369	550.79596	1556.10706	671.74170	560.26367	1186.00598	854.29242	555.48376	1457.52869	626.91028	438.45657	1394.30530	
136	1.350	772.99261	362.90137	1491.15137	786.58783	767.00916	1483.43848				852.71570	423.73755	1006.64935	669.02246	506.51096	1043.09119	652.90588	559.01605	1019.32813	674.88312	609.01709	1046.81873	862.32220	683.85730	1018.00287	757.96503	361.83405	512.99902	693.42273	359.39859	87.66104	757.57227	740.68091	509.84631	701.61017	751.92773	79.93681	779.41394	475.37204	490.41412	739.30316	439.50800	92.88789	767.40253	628.43524	487.39221	717.48108	661.48486	94.02596	695.28558	550.77881	1556.10425	671.70685	560.25366	1186.01453	854.27484	555.41351	1457.51782	626.87830	438.42502	1394.26013	
137	1.360	772.97620	362.83664	1491.12280	786.55835	766.98065	1483.48511				852.66357	423.73776	1006.65979	668.99518	506.47076	1043.11584	652.83832	558.98108	1019.33240	674.85718	609.00763	1046.78198	862.27478	683.84760	1018.03674	757.98486	361.79822	513.04962	693.43829	359.36353	87.63136	757.55414	740.68054	509.87094	701.61865	751.93884	79.96368	779.35181	475.39447	490.45575	739.26703	439.52609	92.87510	767.37775	628.37299	487.39276	717.48334	661.48773	94.03065	695.27222	550.77325	1556.10767	671.68323	560.23114	1186.04724	854.23633	555.36871	1457.53320	626.84570	438.38861	1394.29114	
138	1.370	772.96735	362.81430	1491.14063	786.54712	766.94873	1483.50061				852.61127	423.75970	1006.66376	668.96246	506.49792	1043.11902	652.81281	558.97833	1019.35791	674.80847	609.00000	1046.82764	862.25055	683.83887	1018.04388	757.95319	361.83551	513.01410	693.46332	359.33914	87.67002	757.52368	740.70239	509.87274	701.60309	751.92206	79.95504	779.35150	475.36002	490.44156	739.25720	439.49893	92.88853	767.42542	628.37659	487.42166	717.48523	661.48798	94.03957	695.24414	550.69714	1556.11133	671.62585	560.25946	1186.03271	854.21118	555.42426	1457.59595	626.82233	438.40268	1394.28552	
139	1.380	772.91956	362.86237	1491.12415	786.51837	766.97327	1483.56482				852.55865	423.72385	1006.66016	668.87476	506.53113	1043.09399	652.74731	558.95514	1019.34631	674.75360	608.98755	1046.79932	862.23212	683.83362	1018.06183	757.95038	361.84610	513.01508	693.43311	359.37741	87.65231	757.54523	740.65729	509.87747	701.60126	751.92755	79.98707	779.35089	475.35144	490.39133	739.25909	439.51425	92.86121	767.38342	628.35712	487.38733	717.44568	661.48303	94.04765	695.21375	550.72443	1556.09961	671.59033	560.23425	1186.05396	854.19226	555.38788	1457.58301	626.78369	438.37720	1394.26624	
140	1.390	772.90149	362.80902	1491.08862	786.52545	766.92267	1483.60791				852.50513	423.71875	1006.68188	668.89490	506.47144	1043.10156	652.74207	558.96582	1019.33026	674.70599	609.02032	1046.76001	862.18323	683.82965	1018.08411	757.93060	361.82938	513.00134	693.42902	359.33771	87.66321	757.54712	740.68896	509.88489	701.58734	751.94373	79.97871	779.34766	475.35767	490.46484	739.23566	439.50626	92.88145	767.41644	628.40106	487.41721	717.45258	661.47919	94.06416	695.18292	550.70831	1556.09375	671.56079	560.23712	1186.05383	854.15338	555.35254	1457.56433	626.74500	438.32410	1394.25159	
141	1.400	772.89606	362.75565	1491.07886	786.48645	766.93378	1483.58191				852.46643	423.70230	1006.71045	668.90924	506.47879	1043.08118	652.71558	558.96515	1019.29279	674.67987	608.97162	1046.81042	862.15656	683.80817	1018.05872	757.91815	361.83090	512.99146	693.41180	359.37839	87.66589	757.50677	740.73706	509.87500	701.57764	751.95471	79.97929	779.33789	475.34409	490.46225	739.22534	439.51389	92.89185	767.52777	628.56757	487.31018	717.44714	661.49091	94.07383	695.13562	550.66919	1556.07043	671.49530	560.24243	1186.06543	854.12579	555.37823	1457.55981	626.74969	438.29053	1394.27393	
142	1.410	772.87354	362.76712	1491.12695	786.44348	766.93188	1483.60376				852.45630	423.74673	1006.70886	668.79388	506.51669	1043.08411	652.67310	558.98712	1019.29260	674.62189	609.00415	1046.84277	862.14685	683.86450	1018.05634	757.91876	361.83633	513.02026	693.40875	359.37189	87.67731	757.51068	740.68579	509.85809	701.59839	751.93201	79.92798	779.32520	475.33463	490.41754	739.27979	439.51117	92.87457	767.32648	628.35425	487.40823	717.46509	661.49109	94.04520	695.10516	550.65472	1556.08826	671.42731	560.29700	1186.03113	854.11816	555.38708	1457.57385	626.69446	438.31641	1394.28613	
143	1.420	772.81348	362.78046	1491.08716	786.46777	766.86829	1483.67712				852.40045	423.71445	1006.68854	668.76770	506.51352	1043.10254	652.63037	558.98584	1019.32947	674.54694	609.02136	1046.82947	862.13043	683.78339	1018.05255	757.88647	361.82687	513.00928	693.42682	359.38443	87.63398	757.49194	740.69226	509.86813	701.62506	751.94006	79.94986	779.31805	475.35928	490.44574	739.29480	439.50690	92.85386	767.37689	628.40820	487.44376	717.47272	661.50012	94.03902	695.05530	550.59979	1556.09265	671.37274	560.27173	1186.06262	854.09729	555.29205	1457.58826	626.64563	438.28564	1394.30042	
144	1.430	772.81653	362.71649	1491.08521	786.42126	766.87036	1483.69287				852.35785	423.72607	1006.69617	668.72516	506.51215	1043.11670	652.59302	558.97485	1019.35400	674.55804	609.01770	1046.82996	862.10883	683.80914	1018.06262	757.85504	361.84491	513.00909	693.45142	359.34604	87.65179	757.46069	740.68658	509.87064	701.61548	751.94116	79.95128	779.29022	475.35156	490.46362	739.24036	439.51587	92.86551	767.26349	628.42493	487.42715	717.49982	661.48315	94.05033	695.01831	550.55121	1556.09253	671.32037	560.24017	1186.08167	854.05878	555.31323	1457.61108	626.61005	438.24875	1394.28882	
145	1.440	772.79187	362.72232	1491.07947	786.39246	766.88635	1483.74146				852.30481	423.75226	1006.71930	668.68347	506.43857	1043.10815	652.55280	558.97968	1019.35809	674.51917	609.02417	1046.86169	862.09534	683.80859	1018.06140	757.87665	361.83023	513.03711	693.44745	359.35498	87.67229	757.46863	740.66626	509.87762	701.59113	751.92804	79.97153	779.27563	475.33743	490.43628	739.26251	439.53339	92.88612	767.33575	628.35907	487.44632	717.47339	661.49683	94.05847	694.97815	550.53668	1556.12085	671.27844	560.27686	1186.08313	854.04596	555.27545	1457.63123	626.56653	438.24316	1394.30530	
146	1.450	772.75500	362.71536	1491.07092	786.42261	766.83209	1483.80664				852.26062	423.71649	1006.73859	668.69025	506.54892	1043.09473	652.54303	558.99139	1019.35266	674.44543	609.05505	1046.85083	862.02582	683.79529	1018.01788	757.86224	361.81351	513.05463	693.41632	359.35840	87.64814	757.47955	740.69220	509.89029	701.60004	751.93311	79.97842	779.27917	475.35333	490.48361	739.27740	439.50418	92.89190	767.41553	628.52527	487.32455	717.44409	661.49707	94.04763	694.94287	550.54797	1556.10547	671.22266	560.26477	1186.12280	854.03809	555.19751	1457.67334	626.51190	438.20477	1394.30566	
147	1.460	772.72809	362.76398	1491.05811	786.37927	766.83661	1483.81433				852.20331	423.72348	1006.69989	668.62646	506.49463	1043.11047	652.52734	558.98907	1019.32062	674.42957	609.04742	1046.82275	862.02307	683.79956	1018.04248	757.81421	361.82330	513.01404	693.43237	359.36313	87.64845	757.47522	740.71381	509.90198	701.60883	751.92303	79.96899	779.26355	475.35358	490.47568	739.28210	439.50552	92.89415	767.33643	628.38757	487.40903	717.45490	661.50275	94.05391	694.89301	550.48779	1556.05298	671.17010	560.26678	1186.09851	853.99042	555.25049	1457.63245	626.50189	438.22156	1394.25732	
148	1.470	772.68982	362.70090	1491.05139	786.33801	766.83307	1483.80371				852.18829	423.71390	1006.74573	668.59937	506.49799	1043.07703	652.48584	558.98651	1019.30438	674.39594	609.04199	1046.82483	861.97229	683.79224	1017.99829	757.82141	361.83740	513.02478	693.42871	359.35278	87.66962	757.48700	740.68677	509.88934	701.60217	751.94519	79.95956	779.21570	475.34305	490.47360	739.24048	439.50385	92.88232	767.33093	628.38025	487.42538	717.46515	661.49579	94.04428	694.82104	550.47156	1556.08667	671.11670	560.29346	1186.07617	853.97186	555.18793	1457.63062	626.45721	438.17712	1394.26929	
149	1.480	772.57239	362.37674	1491.09534	786.33740	766.85059	1483.86658				852.13672	423.72443	1006.74493	668.56085	506.51740	1043.06897	652.46002	559.00745	1019.28967	674.34094	609.07605	1046.84583	861.99976	683.77313	1018.07019	757.81799	361.83002	513.02435	693.42712	359.35880	87.66473	757.46759	740.72546	509.88187	701.60809	751.95367	79.95453	779.18158	475.34836	490.45636	739.23651	439.48453	92.87149	767.33472	628.40295	487.43494	717.48419	661.49738	94.07037	694.77753	550.52264	1556.07935	671.02826	560.30762	1186.10364	853.95050	555.24951	1457.61780	626.39001	438.16922	1394.27344	
150	1.490	772.61725	362.67468	1491.07312	786.36456	766.83356	1483.93689				852.10071	423.68704	1006.74969	668.53296	506.55063	1043.08838	652.42981	559.01477	1019.32050	674.27692	609.10773	1046.81616	861.95544	683.78888	1018.00848	757.83710	361.84583	513.01080	693.41418	359.33768	87.65799	757.48102	740.68317	509.86337	701.60248	751.94250	79.97178	779.20294	475.34216	490.48605	739.23212	439.50415	92.89658	767.42651	628.62646	487.34882	717.45972	661.49731	94.06036	694.75690	550.47339	1556.08923	670.99677	560.35834	1186.10388	853.93927	555.14624	1457.65894	626.33832	438.16376	1394.27490	
151	1.500	772.55469	362.70914	1491.05652	786.29443	766.80029	1483.93823				852.04797	423.70566	1006.74127	668.49078	506.54343	1043.08691	652.38275	559.00824	1019.34167	674.24939	609.10083	1046.84583	861.94269	683.74457	1018.08179	757.78296	361.81448	512.99408	693.42432	359.36661	87.64781	757.45398	740.69574	509.89545	701.60242	751.94696	80.00180	779.17706	475.37723	490.44678	739.23883	439.51468	92.87723	767.26184	628.35657	487.46832	717.44812	661.49457	94.05111	694.68726	550.43781	1556.09863	670.87805	560.33301	1186.11206	853.89917	555.13141	1457.68140	626.25708	438.11069	1394.30212	
152	1.510	772.53125	362.64264	1491.05005	786.28699	766.76947	1484.00293				852.02625	423.71890	1006.75146	668.43439	506.58084	1043.10645	652.33075	559.00867	1019.31647	674.23560	609.09955	1046.84180	861.94141	683.75549	1018.07648	757.79504	361.83389	513.03363	693.42090	359.35809	87.64268	757.43323	740.73578	509.90604	701.59027	751.95587	79.98525	779.17773	475.37781	490.45120	739.20966	439.50702	92.89176	767.28674	628.33612	487.49719	717.43134	661.50830	94.02887	694.63043	550.42023	1556.11377	670.84161	560.34027	1186.11096	853.88086	555.10962	1457.71643	626.20947	438.11005	1394.31653	
